<svg width="375" height="399" viewBox="0 0 375 399" fill="none" xmlns="http://www.w3.org/2000/svg">
<path opacity="0.759165" d="M320.522 2.16511C352.724 8.36958 382.925 23.471 406.758 46.0856C430.833 68.9302 450.77 97.9289 456.052 130.766C461.152 162.469 444.443 192.376 435.237 223.13C426.386 252.694 422.573 284.437 402.938 308.19C382.569 332.833 353.831 349.092 323.345 358.494C292.375 368.045 259.338 369.951 227.879 362.176C196.224 354.352 167.785 337.098 144.417 314.272C120.979 291.378 101.243 263.676 94.2112 231.609C87.3336 200.245 98.0052 168.784 105.677 137.606C113.423 106.128 116.869 71.4405 139.352 48.1675C161.868 24.859 196.11 19.5007 227.462 11.5401C258.21 3.73254 289.374 -3.83628 320.522 2.16511Z" fill="#FFC220"/>
<path d="M87.7298 35.9405C171.923 48.6563 260.842 89.7314 273.242 174.499C286.548 265.455 222.618 347.79 138.646 383.994C60.9506 417.492 -29.0297 393.144 -83.9924 328.518C-133.573 270.22 -124.397 186.37 -85.618 120.3C-49.5289 58.8121 17.556 25.3422 87.7298 35.9405Z" fill="#E212E7"/>
</svg>
