<svg width="15" height="15" viewBox="0 0 15 15" fill="none" xmlns="http://www.w3.org/2000/svg">
<path fill-rule="evenodd" clip-rule="evenodd" d="M10.5148 3.20421L6.16995 6.84282L4.48522 5.43193C4.32266 5.29579 4.11576 5.22772 3.86453 5.22772C3.6133 5.22772 3.4064 5.29579 3.24384 5.43193C3.08128 5.56807 3 5.74134 3 5.95173C3 6.16213 3.08128 6.3354 3.24384 6.47153L5.54926 8.40223C5.7266 8.55074 5.9335 8.625 6.16995 8.625C6.4064 8.625 6.6133 8.55074 6.79064 8.40223L11.7562 4.24381C11.9187 4.10767 12 3.93441 12 3.72401C12 3.51361 11.9187 3.34035 11.7562 3.20421C11.5936 3.06807 11.3867 3 11.1355 3C10.8842 3 10.6773 3.06807 10.5148 3.20421ZM10.5148 6.57921L6.16995 10.2178L4.48522 8.80693C4.32266 8.67079 4.11576 8.60272 3.86453 8.60272C3.6133 8.60272 3.4064 8.67079 3.24384 8.80693C3.08128 8.94307 3 9.11634 3 9.32673C3 9.53713 3.08128 9.7104 3.24384 9.84653L5.54926 11.7772C5.7266 11.9257 5.9335 12 6.16995 12C6.4064 12 6.6133 11.9257 6.79064 11.7772L11.7562 7.61881C11.9187 7.48267 12 7.30941 12 7.09901C12 6.88861 11.9187 6.71535 11.7562 6.57921C11.5936 6.44307 11.3867 6.375 11.1355 6.375C10.8842 6.375 10.6773 6.44307 10.5148 6.57921Z" fill="#7A7A7A"/>
</svg>
