<svg width="40" height="40" viewBox="0 0 40 40" fill="none" xmlns="http://www.w3.org/2000/svg">
<path d="M23.5 9C30.925 9 37 13.7733 37 19.6667C37 25.56 30.925 30.3333 23.5 30.3333C21.826 30.3333 20.2195 30.0933 18.7345 29.6667C14.7925 33 10 33 10 33C13.1455 29.8933 13.645 27.8 13.7125 27C11.4175 25.0933 10 22.5067 10 19.6667C10 13.7733 16.075 9 23.5 9Z" fill="white"/>
<path d="M11.8726 26.1861L11.6157 26.1123L11.4117 26.2849C9.51635 27.8875 7.41029 28.6935 5.76937 29.0979C5.20676 29.2365 4.70092 29.3274 4.27998 29.387C6.6742 26.7381 7.13926 24.889 7.21073 24.042L7.23266 23.7821L7.03201 23.6154C4.82867 21.7849 3.5 19.3308 3.5 16.6667C3.5 11.1535 9.23407 6.5 16.5 6.5C23.7659 6.5 29.5 11.1535 29.5 16.6667C29.5 22.1798 23.7659 26.8333 16.5 26.8333C14.8737 26.8333 13.3136 26.6001 11.8726 26.1861Z" stroke="white"/>
</svg>
