<svg width="24" height="24" viewBox="0 0 24 24" fill="none" xmlns="http://www.w3.org/2000/svg">
<path d="M6.33606 12.7308L12.7009 6.36597C13.0074 6.05954 13.3712 5.81649 13.7717 5.65068C14.1721 5.48487 14.6013 5.39956 15.0347 5.39962C15.4681 5.39967 15.8972 5.48509 16.2976 5.651C16.698 5.81691 17.0618 6.06006 17.3683 6.36657C17.6747 6.67307 17.9177 7.03693 18.0835 7.43737C18.2494 7.83781 18.3347 8.26698 18.3346 8.70039C18.3346 9.1338 18.2491 9.56295 18.0832 9.96335C17.9173 10.3637 17.6742 10.7275 17.3677 11.034L9.73086 18.6708C9.44936 18.9523 9.06756 19.1104 8.66946 19.1104C8.27136 19.1104 7.88956 18.9523 7.60806 18.6708C7.32656 18.3893 7.16841 18.0075 7.16841 17.6094C7.16841 17.2113 7.32656 16.8295 7.60806 16.548L14.3965 9.75957C14.5554 9.58896 14.642 9.3633 14.6379 9.13014C14.6338 8.89698 14.5393 8.67452 14.3744 8.50962C14.2095 8.34473 13.987 8.25027 13.7539 8.24616C13.5207 8.24204 13.2951 8.32859 13.1245 8.48757L6.33606 15.276C5.71704 15.895 5.36929 16.7345 5.36929 17.61C5.36929 18.4854 5.71704 19.325 6.33606 19.944C6.95508 20.563 7.79464 20.9107 8.67006 20.9107C9.54548 20.9107 10.385 20.563 11.0041 19.944L18.6397 12.306C19.5777 11.3458 20.0994 10.0546 20.0916 8.71227C20.0838 7.36998 19.5471 6.08488 18.5979 5.13572C17.6487 4.18656 16.3637 3.64987 15.0214 3.64205C13.6791 3.63424 12.3878 4.15593 11.4277 5.09397L5.06406 11.4576C4.90508 11.6282 4.81854 11.8538 4.82265 12.087C4.82676 12.3202 4.92122 12.5426 5.08611 12.7075C5.25101 12.8724 5.47347 12.9669 5.70663 12.971C5.93979 12.9751 6.16545 12.8885 6.33606 12.7296V12.7308Z" fill="#7A7A7A"/>
</svg>
