<svg width="20" height="20" viewBox="0 0 20 20" fill="none" xmlns="http://www.w3.org/2000/svg">
<path d="M9.99992 9.99996C10.4583 9.99996 10.8508 9.83663 11.1774 9.50996C11.5035 9.18385 11.6666 8.79163 11.6666 8.33329C11.6666 7.87496 11.5035 7.48246 11.1774 7.15579C10.8508 6.82968 10.4583 6.66663 9.99992 6.66663C9.54158 6.66663 9.14936 6.82968 8.82325 7.15579C8.49659 7.48246 8.33325 7.87496 8.33325 8.33329C8.33325 8.79163 8.49659 9.18385 8.82325 9.50996C9.14936 9.83663 9.54158 9.99996 9.99992 9.99996ZM9.99992 16.125C11.6944 14.5694 12.9513 13.1561 13.7708 11.885C14.5902 10.6144 14.9999 9.48607 14.9999 8.49996C14.9999 6.98607 14.5171 5.74635 13.5516 4.78079C12.5866 3.81579 11.4027 3.33329 9.99992 3.33329C8.59714 3.33329 7.41297 3.81579 6.44742 4.78079C5.48242 5.74635 4.99992 6.98607 4.99992 8.49996C4.99992 9.48607 5.40964 10.6144 6.22909 11.885C7.04853 13.1561 8.30547 14.5694 9.99992 16.125ZM9.99992 18.3333C7.76381 16.4305 6.09381 14.663 4.98992 13.0308C3.88547 11.3991 3.33325 9.88885 3.33325 8.49996C3.33325 6.41663 4.00353 4.7569 5.34409 3.52079C6.68409 2.28468 8.23603 1.66663 9.99992 1.66663C11.7638 1.66663 13.3158 2.28468 14.6558 3.52079C15.9963 4.7569 16.6666 6.41663 16.6666 8.49996C16.6666 9.88885 16.1146 11.3991 15.0108 13.0308C13.9063 14.663 12.236 16.4305 9.99992 18.3333Z" fill="white"/>
</svg>
