<svg width="40" height="40" viewBox="0 0 40 40" fill="none" xmlns="http://www.w3.org/2000/svg">
<g filter="url(#filter0_d_50_1742)">
<rect x="4" width="32" height="32" rx="16" fill="white" shape-rendering="crispEdges"/>
<path d="M18.5479 18.7374V18.5109C18.5518 17.7339 18.6132 17.1145 18.732 16.6527C18.8547 16.1909 19.0329 15.818 19.2665 15.5338C19.5001 15.2496 19.7812 14.9921 20.1099 14.7612C20.3554 14.5836 20.5751 14.3993 20.7691 14.2084C20.9631 14.0174 21.1175 13.8065 21.2324 13.5756C21.3472 13.3403 21.4046 13.0783 21.4046 12.7897C21.4046 12.4833 21.3393 12.2147 21.2086 11.9838C21.078 11.7529 20.9018 11.5753 20.68 11.451C20.4623 11.3267 20.2207 11.2645 19.9555 11.2645C19.6981 11.2645 19.4546 11.3289 19.2249 11.4577C18.9953 11.582 18.8072 11.7685 18.6607 12.0171C18.5142 12.2613 18.435 12.5655 18.4232 12.9296H16C16.0198 12.0415 16.2098 11.3089 16.5702 10.7317C16.9305 10.15 17.4076 9.7171 18.0015 9.43292C18.5954 9.14431 19.2507 9 19.9673 9C20.7553 9 21.4521 9.14653 22.0579 9.43958C22.6637 9.7282 23.1388 10.1478 23.4833 10.6984C23.8278 11.249 24 11.9128 24 12.6898C24 13.2093 23.9228 13.6711 23.7684 14.0752C23.6179 14.4748 23.4061 14.83 23.1329 15.1408C22.8597 15.4472 22.537 15.7247 22.1648 15.9734C21.852 16.182 21.5947 16.3996 21.3927 16.6261C21.1948 16.8525 21.0463 17.1145 20.9473 17.412C20.8523 17.7095 20.8028 18.0758 20.7988 18.5109V18.7374H18.5479ZM19.7238 23C19.3279 23 18.9894 22.8446 18.7082 22.5338C18.4311 22.2185 18.2945 21.8411 18.2984 21.4015C18.2945 20.9664 18.4311 20.5934 18.7082 20.2826C18.9894 19.9718 19.3279 19.8164 19.7238 19.8164C20.1 19.8164 20.4306 19.9718 20.7157 20.2826C21.0007 20.5934 21.1453 20.9664 21.1492 21.4015C21.1453 21.6946 21.076 21.9632 20.9414 22.2074C20.8107 22.4472 20.6385 22.6403 20.4246 22.7869C20.2108 22.929 19.9772 23 19.7238 23Z" fill="#151515"/>
</g>
<defs>
<filter id="filter0_d_50_1742" x="0" y="0" width="40" height="40" filterUnits="userSpaceOnUse" color-interpolation-filters="sRGB">
<feFlood flood-opacity="0" result="BackgroundImageFix"/>
<feColorMatrix in="SourceAlpha" type="matrix" values="0 0 0 0 0 0 0 0 0 0 0 0 0 0 0 0 0 0 127 0" result="hardAlpha"/>
<feOffset dy="4"/>
<feGaussianBlur stdDeviation="2"/>
<feComposite in2="hardAlpha" operator="out"/>
<feColorMatrix type="matrix" values="0 0 0 0 0 0 0 0 0 0 0 0 0 0 0 0 0 0 0.25 0"/>
<feBlend mode="normal" in2="BackgroundImageFix" result="effect1_dropShadow_50_1742"/>
<feBlend mode="normal" in="SourceGraphic" in2="effect1_dropShadow_50_1742" result="shape"/>
</filter>
</defs>
</svg>
