<svg width="161" height="34" viewBox="0 0 161 34" fill="none" xmlns="http://www.w3.org/2000/svg">
<path d="M17.7631 9.45654C17.0668 9.45654 16.638 9.63314 16.4765 9.98633C16.3554 10.2487 16.2394 10.7633 16.1284 11.5303C16.0274 12.2972 15.977 12.9935 15.977 13.6191C15.977 13.9925 16.0981 14.2498 16.3403 14.3911C16.5825 14.5324 17.0366 14.603 17.7026 14.603C18.1466 14.603 18.4745 14.5223 18.6865 14.3608C18.8984 14.1994 19.0447 13.9269 19.1254 13.5435C19.3575 12.4435 19.8318 11.8936 20.5483 11.8936C21.7794 11.8936 22.395 13.3669 22.395 16.3135C22.395 18.1803 22.1275 19.5527 21.5927 20.4307C21.2698 20.9655 20.8258 21.2329 20.2607 21.2329C19.6653 21.2329 19.3222 20.8343 19.2314 20.0371C19.1809 19.5225 19.1153 19.1592 19.0346 18.9473C18.964 18.7354 18.8227 18.5335 18.6108 18.3418C18.2778 18.029 17.7934 17.8726 17.1577 17.8726C16.7036 17.8726 16.3958 17.9533 16.2343 18.1147C16.0729 18.2762 16.0022 18.584 16.0224 19.0381C16.0224 19.1188 16.0174 19.5881 16.0073 20.4458C16.0073 22.1916 16.1889 23.2562 16.5522 23.6396C16.6733 23.791 16.7944 23.8919 16.9155 23.9424C17.0467 23.9827 17.3797 24.0433 17.9145 24.124C18.1769 24.1644 18.3989 24.3006 18.5805 24.5327C18.7621 24.7648 18.853 25.0322 18.853 25.335C18.853 26.112 18.3989 26.6115 17.4907 26.8335C16.1788 27.1463 14.3372 27.3027 11.9658 27.3027C9.88698 27.3027 8.45404 27.1816 7.66693 26.9395C7.31374 26.8285 7.02614 26.6266 6.80414 26.334C6.58213 26.0413 6.47113 25.7184 6.47113 25.3652C6.47113 24.9212 6.63259 24.563 6.95551 24.2905C7.03623 24.23 7.31374 24.1038 7.78802 23.9121C8.35313 23.6901 8.69118 23.1755 8.80219 22.3682C8.98383 21.127 9.07465 18.2964 9.07465 13.8765C9.07465 11.9692 9.00905 10.7331 8.87787 10.168C8.74668 9.60286 8.42881 9.20931 7.92426 8.9873C7.4197 8.7653 7.08669 8.57357 6.92523 8.41211C6.77386 8.24056 6.69818 7.99837 6.69818 7.68555C6.69818 7.24154 6.91514 6.87321 7.34906 6.58057C7.78298 6.27783 8.31781 6.12646 8.95355 6.12646C9.3572 6.12646 9.94753 6.15674 10.7245 6.21729C12.3694 6.34847 14.3372 6.41406 16.6279 6.41406C20.291 6.41406 22.7582 6.31315 24.0297 6.11133C24.2013 6.09115 24.3325 6.08105 24.4233 6.08105C24.7765 6.08105 25.1145 6.28288 25.4374 6.68652C26.3255 7.81673 26.7695 9.06803 26.7695 10.4404C26.7695 11.0661 26.6231 11.5656 26.3305 11.939C26.0379 12.3123 25.6544 12.499 25.1801 12.499C24.8269 12.499 24.5595 12.4284 24.3779 12.2871C24.1962 12.1458 23.732 11.6514 22.9853 10.8037C22.5312 10.279 21.9812 9.93587 21.3354 9.77441C20.6996 9.61296 19.5089 9.507 17.7631 9.45654Z" fill="#151515"/>
<path d="M35.6771 7.24658L35.4803 13.1499C35.4803 13.2912 35.4803 13.4022 35.4803 13.4829C35.4803 13.6847 35.5459 13.7856 35.6771 13.7856C35.7478 13.7856 35.9496 13.6494 36.2826 13.377C37.4633 12.4082 38.765 11.9238 40.1879 11.9238C41.6006 11.9238 42.8469 12.4334 43.9266 13.4526C45.2789 14.7342 45.955 16.4043 45.955 18.4629C45.955 21.3994 44.8601 23.7456 42.6703 25.5015C41.0961 26.7729 39.2494 27.4087 37.1303 27.4087C36.0808 27.4087 35.1322 27.2725 34.2845 27C33.447 26.7376 32.5287 26.2835 31.5297 25.6377C31.3783 25.5469 31.2572 25.5015 31.1664 25.5015C31.0554 25.5015 30.7426 25.5973 30.2279 25.7891C29.9655 25.89 29.6578 25.9404 29.3046 25.9404C28.6789 25.9404 28.3661 25.7386 28.3661 25.335C28.3661 25.2038 28.3913 25.0524 28.4418 24.8809C28.6436 24.2249 28.7798 23.4126 28.8505 22.4438C28.9211 21.4751 28.9564 19.9412 28.9564 17.8423V13.6646C28.9564 12.6252 28.9161 11.9743 28.8353 11.7119C28.7546 11.4495 28.5275 11.2427 28.1542 11.0913C27.6294 10.8693 27.2662 10.6523 27.0643 10.4404C26.8625 10.2184 26.7616 9.94092 26.7616 9.60791C26.7616 8.9318 27.4831 8.27083 28.9261 7.625C29.7133 7.2819 30.6921 6.98421 31.8627 6.73193C33.0433 6.46956 34.0525 6.33838 34.89 6.33838C35.4248 6.33838 35.6872 6.64111 35.6771 7.24658ZM36.9789 16.48C36.434 16.48 36.0404 16.6667 35.7982 17.04C35.6065 17.3226 35.5106 17.8978 35.5106 18.7656C35.5106 21.137 35.5914 22.7365 35.7528 23.564C35.8941 24.3309 36.323 24.7144 37.0394 24.7144C37.7761 24.7144 38.3361 24.4015 38.7196 23.7759C39.1031 23.1502 39.2948 22.242 39.2948 21.0513C39.2948 19.2954 38.9719 18.0138 38.326 17.2065C37.9527 16.7424 37.5036 16.5002 36.9789 16.48Z" fill="#151515"/>
<path d="M53.7425 27H52.6527C52.0169 27 51.3055 27.0303 50.5184 27.0908C50.0239 27.1312 49.6808 27.1514 49.4891 27.1514C48.813 27.1514 48.263 26.995 47.8392 26.6821C47.4153 26.3693 47.2034 25.9606 47.2034 25.4561C47.2034 25.1029 47.2943 24.8304 47.4759 24.6387C47.6676 24.4368 47.9754 24.2754 48.3992 24.1543C48.8029 24.0534 49.0753 23.8919 49.2166 23.6699C49.3579 23.4378 49.4689 22.9938 49.5496 22.3379C49.6304 21.5811 49.701 20.1077 49.7615 17.918C49.8322 15.7282 49.8675 13.5535 49.8675 11.394C49.8675 10.5464 49.8019 9.98128 49.6707 9.69873C49.5395 9.41618 49.2318 9.18913 48.7474 9.01758C48.0511 8.75521 47.7029 8.30615 47.7029 7.67041C47.7029 7.17594 47.9401 6.79248 48.4144 6.52002C48.8987 6.23747 49.5698 6.09619 50.4276 6.09619C50.7101 6.09619 51.0431 6.10124 51.4266 6.11133C52.2742 6.1416 52.8898 6.15674 53.2733 6.15674C54.7163 6.15674 56.346 6.11133 58.1624 6.02051C58.5459 6.00033 59.0252 5.99023 59.6004 5.99023C61.9113 5.99023 63.7378 6.2526 65.0799 6.77734C67.0779 7.56445 68.5815 8.88639 69.5906 10.7432C70.4888 12.3779 70.9378 14.3255 70.9378 16.5859C70.9378 17.7262 70.7713 18.8716 70.4383 20.022C70.1053 21.1623 69.6562 22.1512 69.0911 22.9888C67.9206 24.6841 66.306 25.8748 64.2474 26.561C63.0364 26.9647 61.7448 27.1665 60.3724 27.1665L58.5408 27.106L56.9666 27.0605C55.7456 27.0202 54.6709 27 53.7425 27ZM56.9212 10.5918V22.3076C56.9212 22.9434 57.0574 23.3975 57.3299 23.6699C57.6024 23.9323 58.0565 24.0635 58.6922 24.0635C61.6388 24.0635 63.1121 21.8232 63.1121 17.3428C63.1121 14.8704 62.769 12.9531 62.0828 11.5908C61.326 10.0872 60.0444 9.33545 58.2381 9.33545C57.7537 9.33545 57.4106 9.43132 57.2088 9.62305C57.0171 9.81478 56.9212 10.1377 56.9212 10.5918Z" fill="#151515"/>
<path d="M81.2078 11.9087C82.9636 11.9087 84.4521 12.3527 85.6731 13.2407C86.3189 13.715 86.768 14.2599 87.0203 14.8755C87.2826 15.481 87.4138 16.3185 87.4138 17.3882L87.3836 19.6436C87.3836 21.2077 87.4946 22.2218 87.7166 22.686C87.8276 22.908 87.9335 23.0493 88.0344 23.1099C88.1353 23.1704 88.3473 23.2259 88.6702 23.2764C88.9931 23.3268 89.1545 23.5387 89.1545 23.9121C89.1545 24.3965 88.9578 24.901 88.5642 25.4258C88.1808 25.9505 87.6812 26.3895 87.0657 26.7427C86.3088 27.1867 85.5167 27.4087 84.6892 27.4087C83.6296 27.4087 82.7921 27.0454 82.1765 26.3188C81.9646 26.0565 81.7678 25.9253 81.5862 25.9253C81.3844 25.9253 81.117 26.0514 80.7839 26.3037C79.7748 27.0404 78.6295 27.4087 77.3479 27.4087C76.026 27.4087 74.9563 27.1261 74.1389 26.561C73.6041 26.1877 73.1803 25.7033 72.8674 25.1079C72.5546 24.5024 72.3982 23.8717 72.3982 23.2158C72.3982 22.1663 72.822 21.238 73.6697 20.4307C74.9916 19.1592 76.9695 18.5184 79.6033 18.5083C80.1886 18.5083 80.5569 18.4528 80.7083 18.3418C80.8596 18.2207 80.9353 17.9482 80.9353 17.5244C80.9353 16.4548 80.8243 15.6828 80.6023 15.2085C80.3803 14.7241 80.017 14.4819 79.5125 14.4819C79.2097 14.4819 78.9373 14.5728 78.6951 14.7544C78.463 14.936 78.1703 15.269 77.8171 15.7534C76.919 17.035 75.9806 17.6758 75.0017 17.6758C74.5072 17.6758 74.1036 17.5295 73.7908 17.2368C73.478 16.9442 73.3215 16.5607 73.3215 16.0864C73.3215 15.6021 73.5133 15.1177 73.8967 14.6333C74.2903 14.1489 74.8201 13.7251 75.4861 13.3618C77.3126 12.3931 79.2198 11.9087 81.2078 11.9087ZM80.1936 20.6729C79.7496 20.6729 79.3611 20.8545 79.0281 21.2178C78.7052 21.5811 78.5437 22.015 78.5437 22.5195C78.5437 23.0039 78.6598 23.3975 78.8919 23.7002C79.1239 23.9928 79.4317 24.1392 79.8152 24.1392C80.6225 24.1392 81.0261 23.458 81.0261 22.0957C81.0261 21.5407 80.9656 21.1673 80.8445 20.9756C80.7335 20.7839 80.5165 20.6829 80.1936 20.6729Z" fill="#151515"/>
<path d="M99.4548 15.8896V21.0059C99.4548 21.6113 99.6011 22.1058 99.8937 22.4893C100.196 22.8727 100.58 23.0645 101.044 23.0645C101.438 23.0645 101.957 22.8828 102.603 22.5195C102.755 22.4287 102.906 22.3833 103.057 22.3833C103.3 22.3833 103.522 22.5296 103.723 22.8223C103.925 23.1149 104.026 23.4328 104.026 23.7759C104.026 24.4015 103.683 25.002 102.997 25.5771C101.564 26.7982 99.8282 27.4087 97.7897 27.4087C96.1752 27.4087 94.8784 26.9546 93.8996 26.0464C92.9208 25.1281 92.4313 23.9222 92.4313 22.4287V15.4355C92.4313 15.2035 92.4011 15.0622 92.3405 15.0117C92.2901 14.9512 92.1488 14.9209 91.9167 14.9209H90.3576C90.065 14.9209 89.8783 14.8755 89.7976 14.7847C89.7168 14.6838 89.6765 14.4567 89.6765 14.1035V13.4375C89.6866 13.1348 89.8026 12.9128 90.0246 12.7715L96.9572 8.41211C97.1288 8.32129 97.3407 8.27588 97.593 8.27588H98.819C99.0713 8.27588 99.2378 8.33643 99.3186 8.45752C99.4094 8.56852 99.4548 8.79557 99.4548 9.13867V11.1821C99.4548 11.4849 99.5002 11.6816 99.591 11.7725C99.6919 11.8633 99.8988 11.9087 100.212 11.9087H103.012C103.385 11.9087 103.627 11.9793 103.738 12.1206C103.849 12.2518 103.905 12.5394 103.905 12.9834V13.8765C103.905 14.3608 103.834 14.6989 103.693 14.8906C103.552 15.0723 103.294 15.1631 102.921 15.1631H100.181C99.8988 15.1631 99.7071 15.2135 99.6061 15.3145C99.5052 15.4154 99.4548 15.6071 99.4548 15.8896Z" fill="#151515"/>
<path d="M113.539 12.9683V21.7627C113.539 22.459 113.6 22.9686 113.721 23.2915C113.852 23.6144 114.109 23.9121 114.493 24.1846C114.806 24.4066 115.013 24.5983 115.113 24.7598C115.224 24.9111 115.28 25.1079 115.28 25.3501C115.28 26.6519 113.63 27.3027 110.33 27.3027C108.554 27.3027 107.146 27.1615 106.107 26.8789C105.754 26.778 105.466 26.6014 105.244 26.3491C105.032 26.0968 104.926 25.8092 104.926 25.4863C104.926 25.2139 104.982 25.002 105.093 24.8506C105.204 24.6992 105.486 24.457 105.941 24.124C106.253 23.8919 106.475 23.5135 106.607 22.9888C106.738 22.464 106.803 21.682 106.803 20.6426C106.803 20.3096 106.778 19.689 106.728 18.7808C106.687 17.8625 106.657 17.3276 106.637 17.1763C106.576 16.7625 106.294 16.4447 105.789 16.2227C105.164 15.9502 104.851 15.5465 104.851 15.0117C104.851 14.376 105.259 13.9017 106.077 13.5889C107.207 13.1549 108.418 12.7866 109.71 12.4839C111.001 12.1812 112 12.0298 112.707 12.0298C113.262 12.0298 113.539 12.3426 113.539 12.9683ZM110.542 6.33838C111.42 6.33838 112.116 6.50488 112.631 6.83789C113.146 7.16081 113.403 7.59977 113.403 8.15479C113.403 8.9318 113.014 9.54736 112.237 10.0015C111.006 10.7179 109.518 11.0762 107.772 11.0762C107.035 11.0762 106.45 10.9349 106.016 10.6523C105.431 10.2891 105.138 9.78451 105.138 9.13867C105.138 8.27083 105.759 7.58968 107 7.09521C108.262 6.59066 109.442 6.33838 110.542 6.33838Z" fill="#151515"/>
<path d="M134.844 17.5093L135.056 22.8374C135.076 23.241 135.136 23.5387 135.237 23.7305C135.348 23.9222 135.661 24.2905 136.176 24.8354C136.327 24.9969 136.403 25.224 136.403 25.5166C136.403 26.1826 136.004 26.6468 135.207 26.9092C134.41 27.1715 132.987 27.3027 130.939 27.3027C129.546 27.3027 128.562 27.1816 127.987 26.9395C127.392 26.6872 127.094 26.2785 127.094 25.7134C127.094 25.5116 127.124 25.3652 127.185 25.2744C127.245 25.1735 127.447 24.9364 127.79 24.563C128.194 24.1392 128.396 22.7264 128.396 20.3247C128.396 18.9321 128.234 17.9028 127.911 17.2368C127.649 16.702 127.164 16.4346 126.458 16.4346C125.782 16.4346 125.318 16.6515 125.066 17.0854C124.813 17.5194 124.687 18.3065 124.687 19.4468V22.4438C124.687 23.0392 124.722 23.4479 124.793 23.6699C124.874 23.8919 125.126 24.3208 125.55 24.9565C125.661 25.1382 125.716 25.3451 125.716 25.5771C125.716 26.1725 125.303 26.6115 124.475 26.894C123.648 27.1766 122.356 27.3179 120.6 27.3179C117.795 27.3179 116.392 26.7376 116.392 25.5771C116.392 25.335 116.433 25.1533 116.513 25.0322C116.604 24.901 116.811 24.7194 117.134 24.4873C117.396 24.2956 117.563 24.0786 117.633 23.8364C117.704 23.5841 117.77 22.9736 117.83 22.0049C117.901 20.8545 117.936 19.6486 117.936 18.3872C117.936 17.6909 117.881 17.2368 117.77 17.0249C117.669 16.8029 117.366 16.5355 116.861 16.2227C116.427 15.9502 116.211 15.6172 116.211 15.2236C116.211 14.82 116.387 14.492 116.74 14.2397C117.093 13.9774 117.82 13.6494 118.92 13.2559C119.889 12.9128 120.822 12.6252 121.72 12.3931C122.618 12.1509 123.234 12.0298 123.567 12.0298C123.87 12.0298 124.122 12.1408 124.324 12.3628C124.536 12.5848 124.642 12.8472 124.642 13.1499C124.642 13.1802 124.637 13.3063 124.627 13.5283C124.616 13.609 124.611 13.6797 124.611 13.7402C124.611 14.2246 124.813 14.4668 125.217 14.4668C125.459 14.4668 125.716 14.2751 125.989 13.8916C126.857 12.6403 128.118 12.0146 129.773 12.0146C131.045 12.0146 132.134 12.3477 133.043 13.0137C133.678 13.488 134.122 14.048 134.375 14.6938C134.627 15.3296 134.783 16.2681 134.844 17.5093Z" fill="#151515"/>
<path d="M153.681 11.1064C153.933 11.1064 154.155 11.2528 154.347 11.5454C154.539 11.828 154.635 12.161 154.635 12.5444C154.635 12.9582 154.504 13.4274 154.241 13.9521C153.989 14.4769 153.681 14.8957 153.318 15.2085C153.086 15.4103 152.97 15.5718 152.97 15.6929C152.97 15.7231 152.98 15.8442 153 16.0562C153.03 16.2681 153.045 16.4598 153.045 16.6313C153.045 17.8322 152.642 18.8413 151.834 19.6587C151.108 20.3853 150.169 20.9504 149.019 21.354C147.879 21.7576 146.622 21.9595 145.25 21.9595C144.917 21.9595 144.589 21.9393 144.266 21.8989C144.004 21.8687 143.802 21.8535 143.661 21.8535C143.126 21.8535 142.858 22.1209 142.858 22.6558C142.858 22.9989 143.03 23.2713 143.373 23.4731C143.726 23.6649 144.201 23.7607 144.796 23.7607C145.2 23.7607 145.795 23.7052 146.582 23.5942C148.237 23.3621 149.458 23.2461 150.245 23.2461C151.436 23.2461 152.359 23.4429 153.015 23.8364C153.54 24.1392 153.954 24.563 154.256 25.1079C154.569 25.6528 154.726 26.2381 154.726 26.8638C154.726 27.883 154.352 28.8719 153.605 29.8306C152.717 30.9608 151.411 31.7983 149.685 32.3433C148.333 32.7671 146.769 32.979 144.993 32.979C142.752 32.979 140.936 32.6359 139.543 31.9497C138.898 31.6268 138.383 31.203 138 30.6782C137.616 30.1535 137.424 29.6086 137.424 29.0435C137.424 28.6499 137.53 28.2866 137.742 27.9536C137.964 27.6206 138.242 27.3835 138.575 27.2422C138.877 27.1211 139.029 26.9899 139.029 26.8486C139.029 26.7376 138.903 26.5762 138.65 26.3643C137.843 25.6882 137.439 24.9868 137.439 24.2603C137.439 23.7759 137.631 23.2764 138.015 22.7617C138.408 22.2471 138.893 21.8485 139.468 21.5659C139.71 21.4448 139.831 21.3237 139.831 21.2026C139.831 21.0614 139.68 20.8494 139.377 20.5669C138.338 19.6082 137.818 18.4881 137.818 17.2065C137.818 16.5304 138 15.8846 138.363 15.269C138.736 14.6535 139.251 14.1287 139.907 13.6948C141.531 12.6353 143.333 12.1055 145.311 12.1055C146.098 12.1055 146.976 12.2064 147.944 12.4082C148.863 12.5898 149.493 12.6807 149.836 12.6807C150.936 12.6807 152.031 12.2467 153.121 11.3789C153.363 11.1973 153.55 11.1064 153.681 11.1064ZM145.462 14.2397C144.957 14.2397 144.549 14.4315 144.236 14.8149C143.933 15.1984 143.782 15.708 143.782 16.3438C143.782 17.4336 143.948 18.3065 144.281 18.9624C144.614 19.6183 145.053 19.9463 145.598 19.9463C146.133 19.9463 146.557 19.7445 146.87 19.3408C147.182 18.9271 147.339 18.3771 147.339 17.6909C147.339 16.6112 147.172 15.7736 146.839 15.1782C146.516 14.5728 146.057 14.2599 145.462 14.2397ZM142.162 28.0142C141.91 28.0142 141.784 28.1605 141.784 28.4531C141.784 29.0485 142.107 29.5278 142.752 29.8911C143.398 30.2645 144.236 30.4512 145.265 30.4512C146.254 30.4512 147.026 30.32 147.581 30.0576C148.146 29.7952 148.429 29.4269 148.429 28.9526C148.429 28.7004 148.323 28.4834 148.111 28.3018C147.899 28.1302 147.637 28.0444 147.324 28.0444C147.162 28.0444 146.93 28.0646 146.627 28.105C146.062 28.1958 145.432 28.2412 144.735 28.2412C144.221 28.2412 143.726 28.216 143.252 28.1655C142.899 28.1353 142.611 28.0949 142.389 28.0444C142.288 28.0243 142.213 28.0142 142.162 28.0142Z" fill="#151515"/>
</svg>
