<svg width="116" height="116" viewBox="0 0 116 116" fill="none" xmlns="http://www.w3.org/2000/svg">
<g filter="url(#filter0_d_56_2978)">
<rect x="20" y="20" width="76" height="76" rx="38" fill="#FFC220"/>
<path d="M57.3385 76.75L58 77.3334L58.6615 76.75L61.27 74.4494L61.2715 74.4481L61.2747 74.4453C65.8875 70.3928 69.7988 66.9566 72.5456 63.701C75.3031 60.4325 77 57.2177 77 53.5913C77 47.6196 72.165 43 66.1 43C63.0537 43 60.1228 44.2188 58 46.197C55.8772 44.2188 52.9463 43 49.9 43C43.835 43 39 47.6196 39 53.5913C39 57.2177 40.6969 60.4325 43.4544 63.701C46.2012 66.9566 50.1125 70.3928 54.7254 74.4453L54.7285 74.4481L54.73 74.4494L57.3385 76.75Z" fill="#E212E7" stroke="white" stroke-width="2"/>
<rect x="20.5" y="20.5" width="75" height="75" rx="37.5" stroke="white"/>
</g>
<defs>
<filter id="filter0_d_56_2978" x="0" y="0" width="116" height="116" filterUnits="userSpaceOnUse" color-interpolation-filters="sRGB">
<feFlood flood-opacity="0" result="BackgroundImageFix"/>
<feColorMatrix in="SourceAlpha" type="matrix" values="0 0 0 0 0 0 0 0 0 0 0 0 0 0 0 0 0 0 127 0" result="hardAlpha"/>
<feOffset/>
<feGaussianBlur stdDeviation="10"/>
<feComposite in2="hardAlpha" operator="out"/>
<feColorMatrix type="matrix" values="0 0 0 0 0 0 0 0 0 0 0 0 0 0 0 0 0 0 0.1 0"/>
<feBlend mode="normal" in2="BackgroundImageFix" result="effect1_dropShadow_56_2978"/>
<feBlend mode="normal" in="SourceGraphic" in2="effect1_dropShadow_56_2978" result="shape"/>
</filter>
</defs>
</svg>
