<svg width="24" height="24" viewBox="0 0 24 24" fill="none" xmlns="http://www.w3.org/2000/svg">
<g clip-path="url(#clip0_56_2393)">
<path d="M22 19.619V20.7143H2V19.619L4.22222 17.4286V10.8571C4.22222 7.4619 6.47778 4.4719 9.77778 3.5081V3.19048C9.77778 2.60953 10.0119 2.05237 10.4287 1.64158C10.8454 1.23078 11.4106 1 12 1C12.5894 1 13.1546 1.23078 13.5713 1.64158C13.9881 2.05237 14.2222 2.60953 14.2222 3.19048V3.5081C17.5222 4.4719 19.7778 7.4619 19.7778 10.8571V17.4286L22 19.619ZM14.2222 21.8095C14.2222 22.3905 13.9881 22.9476 13.5713 23.3584C13.1546 23.7692 12.5894 24 12 24C11.4106 24 10.8454 23.7692 10.4287 23.3584C10.0119 22.9476 9.77778 22.3905 9.77778 21.8095" fill="#151515"/>
<circle cx="18.5" cy="6.5" r="5.5" fill="#E212E7" stroke="white" stroke-width="2"/>
</g>
<defs>
<clipPath id="clip0_56_2393">
<rect width="24" height="24" fill="white"/>
</clipPath>
</defs>
</svg>
