<svg width="24" height="24" viewBox="0 0 24 24" fill="none" xmlns="http://www.w3.org/2000/svg">
<path d="M15.9999 12C14.9719 12 13.9779 11.5306 13.1999 10.6786C12.4434 9.84766 11.9814 8.73954 11.8999 7.55931C11.8129 6.30034 12.1884 5.14261 12.9569 4.29886C13.7254 3.45511 14.7999 3 15.9999 3C17.1914 3 18.2688 3.46329 19.0348 4.305C19.8083 5.15488 20.1848 6.31056 20.0978 7.5588C20.0143 8.74056 19.5528 9.84817 18.7978 10.6781C18.0218 11.5306 17.0284 12 15.9999 12ZM22.5913 21H9.40889C9.19695 21.0011 8.98757 20.9526 8.79687 20.858C8.60617 20.7634 8.43923 20.6253 8.3089 20.4544C8.17065 20.269 8.07518 20.0542 8.02964 19.8258C7.98409 19.5974 7.98965 19.3614 8.0459 19.1356C8.4669 17.4066 9.50989 15.9728 11.0619 14.9894C12.4394 14.117 14.1929 13.6364 15.9999 13.6364C17.8424 13.6364 19.5498 14.0966 20.9353 14.9685C22.4908 15.9467 23.5353 17.3887 23.9543 19.1386C24.0099 19.3647 24.0148 19.6006 23.9688 19.8289C23.9227 20.0572 23.8268 20.2718 23.6883 20.4569C23.5581 20.6271 23.3916 20.7645 23.2014 20.8586C23.0113 20.9527 22.8026 21.0011 22.5913 21ZM6.54991 12.2045C4.79042 12.2045 3.24343 10.5314 3.09993 8.47516C3.02893 7.42176 3.34993 6.44761 3.99992 5.73324C4.64292 5.02602 5.54991 4.63636 6.54991 4.63636C7.5499 4.63636 8.4499 5.02807 9.0964 5.73937C9.75139 6.45937 10.0714 7.43147 9.99639 8.47619C9.85289 10.5319 8.3064 12.2045 6.54991 12.2045ZM9.83289 13.8128C8.9534 13.373 7.8119 13.1531 6.55041 13.1531C5.07742 13.1531 3.64692 13.5458 2.52193 14.2587C1.24644 15.0682 0.388441 16.2469 0.0419429 17.67C-0.00876426 17.8747 -0.0135603 18.0885 0.0279137 18.2953C0.0693876 18.5022 0.156058 18.6968 0.281442 18.8645C0.400415 19.0207 0.552832 19.1469 0.726973 19.2335C0.901113 19.32 1.09234 19.3645 1.28594 19.3636H6.83591C6.92958 19.3636 7.02028 19.33 7.09219 19.2686C7.1641 19.2072 7.21266 19.1219 7.2294 19.0277C7.2349 18.9954 7.24191 18.9632 7.24991 18.9315C7.6739 17.1898 8.6674 15.7181 10.1354 14.6453C10.1894 14.6055 10.2328 14.5525 10.2617 14.4912C10.2907 14.4299 10.3042 14.3622 10.301 14.2942C10.2979 14.2262 10.2783 14.1601 10.2438 14.1018C10.2094 14.0436 10.1613 13.995 10.1039 13.9606C10.0254 13.9135 9.93539 13.8639 9.83289 13.8128Z" fill="#FFC220"/>
</svg>
