<svg width="16" height="16" viewBox="0 0 16 16" fill="none" xmlns="http://www.w3.org/2000/svg">
<g clip-path="url(#clip0_50_1824)">
<path d="M8 1C6.14348 1 4.36301 1.7375 3.05025 3.05025C1.7375 4.36301 1 6.14348 1 8C1 9.85652 1.7375 11.637 3.05025 12.9497C4.36301 14.2625 6.14348 15 8 15C9.85652 15 11.637 14.2625 12.9497 12.9497C14.2625 11.637 15 9.85652 15 8C15 6.14348 14.2625 4.36301 12.9497 3.05025C11.637 1.7375 9.85652 1 8 1ZM8 0C10.1217 0 12.1566 0.842855 13.6569 2.34315C15.1571 3.84344 16 5.87827 16 8C16 10.1217 15.1571 12.1566 13.6569 13.6569C12.1566 15.1571 10.1217 16 8 16C5.87827 16 3.84344 15.1571 2.34315 13.6569C0.842855 12.1566 0 10.1217 0 8C0 5.87827 0.842855 3.84344 2.34315 2.34315C3.84344 0.842855 5.87827 0 8 0Z" fill="#7A7A7A"/>
<path d="M4.2849 6.433C4.39974 6.4993 4.53621 6.51727 4.6643 6.48295C4.79238 6.44863 4.90159 6.36484 4.9679 6.25C5.27501 5.71766 5.71695 5.27563 6.24923 4.96842C6.7815 4.6612 7.38532 4.49964 7.9999 4.5C9.2949 4.5 10.4259 5.203 11.0319 6.25C11.0987 6.3639 11.2078 6.44677 11.3354 6.48052C11.4631 6.51427 11.5989 6.49616 11.7132 6.43014C11.8276 6.36412 11.9112 6.25555 11.9458 6.12813C11.9804 6.00071 11.9632 5.86478 11.8979 5.75C11.503 5.06565 10.9348 4.49738 10.2506 4.1024C9.56627 3.70741 8.79 3.49964 7.9999 3.5C7.20983 3.49984 6.43365 3.7077 5.7494 4.10266C5.06514 4.49763 4.49693 5.06578 4.1019 5.75C4.0356 5.86484 4.01763 6.00131 4.05195 6.1294C4.08627 6.25749 4.17006 6.36669 4.2849 6.433ZM6.9999 9.5C6.9999 8.672 6.5519 8 5.9999 8C5.4479 8 4.9999 8.672 4.9999 9.5C4.9999 10.328 5.4479 11 5.9999 11C6.5519 11 6.9999 10.328 6.9999 9.5ZM10.9999 9.5C10.9999 8.672 10.5519 8 9.9999 8C9.4479 8 8.9999 8.672 8.9999 9.5C8.9999 10.328 9.4479 11 9.9999 11C10.5519 11 10.9999 10.328 10.9999 9.5Z" fill="#7A7A7A"/>
</g>
<defs>
<clipPath id="clip0_50_1824">
<rect width="16" height="16" fill="white"/>
</clipPath>
</defs>
</svg>
