<svg width="24" height="24" viewBox="0 0 24 24" fill="none" xmlns="http://www.w3.org/2000/svg">
<path d="M5.15131 19.1214C4.83911 19.2493 4.54253 19.2212 4.26155 19.037C3.98058 18.8529 3.84009 18.5853 3.84009 18.2343V14.6618C3.84009 14.438 3.90253 14.2382 4.02741 14.0624C4.15228 13.8865 4.32399 13.7746 4.54253 13.7267L11.3328 12.0004L4.54253 10.274C4.32399 10.2261 4.15228 10.1142 4.02741 9.93837C3.90253 9.76254 3.84009 9.56273 3.84009 9.33895V5.76642C3.84009 5.41477 3.98058 5.14687 4.26155 4.96273C4.54253 4.77858 4.83911 4.75077 5.15131 4.87929L19.5747 11.1132C19.965 11.2891 20.1601 11.5848 20.1601 12.0004C20.1601 12.416 19.965 12.7117 19.5747 12.8875L5.15131 19.1214Z" fill="#151515"/>
</svg>
